<svg xmlns="http://www.w3.org/2000/svg" xmlns:xlink="http://www.w3.org/1999/xlink" width="2000" zoomAndPan="magnify" viewBox="0 0 1500 1499.999933" height="2000" preserveAspectRatio="xMidYMid meet" version="1.0"><rect width=1500 height=1500 fill=#F5F0E8/><defs><clipPath id="798d9a4feb"><path d="M 281 461 L 1219 461 L 1219 1056.78125 L 281 1056.78125 Z M 281 461 " clip-rule="nonzero"/></clipPath><clipPath id="b11f4bec00"><path d="M 556 443.28125 L 674 443.28125 L 674 1050 L 556 1050 Z M 556 443.28125 " clip-rule="nonzero"/></clipPath><clipPath id="7580738fad"><path d="M 827 443.28125 L 944 443.28125 L 944 1050 L 827 1050 Z M 827 443.28125 " clip-rule="nonzero"/></clipPath></defs><g clip-path="url(#798d9a4feb)"><path fill="#b8541c" d="M 1218.121094 796.058594 L 1218.121094 721.90625 C 1199.394531 721.160156 1185.164062 717.414062 1175.429688 709.925781 C 1165.691406 702.433594 1159.699219 691.949219 1155.953125 677.71875 C 1152.210938 663.484375 1150.710938 639.519531 1150.710938 606.5625 C 1150.710938 571.359375 1149.214844 545.894531 1145.46875 530.164062 C 1141.722656 514.433594 1135.730469 501.703125 1125.996094 491.214844 C 1116.257812 481.480469 1103.523438 473.988281 1087.796875 468.746094 C 1072.066406 464.253906 1050.34375 461.257812 1022.632812 461.257812 L 1006.15625 461.257812 L 1006.15625 535.40625 C 1033.867188 535.40625 1051.09375 538.402344 1058.585938 543.644531 C 1066.074219 548.890625 1069.070312 561.621094 1069.070312 580.347656 C 1069.070312 638.019531 1072.816406 678.464844 1079.554688 701.683594 C 1086.296875 724.902344 1102.773438 743.628906 1127.492188 758.609375 C 1108.765625 769.09375 1093.789062 784.074219 1084.050781 805.046875 C 1074.3125 825.269531 1069.070312 869.460938 1069.070312 937.621094 C 1069.070312 954.097656 1066.824219 963.835938 1062.328125 969.078125 C 1057.835938 973.570312 1052.59375 977.316406 1047.347656 979.5625 C 1042.105469 981.808594 1028.625 982.558594 1006.15625 982.558594 L 1006.15625 1056.710938 L 1022.632812 1056.710938 C 1064.578125 1056.710938 1092.289062 1051.46875 1107.269531 1041.730469 C 1122.25 1031.246094 1132.734375 1020.007812 1139.476562 1006.527344 C 1146.21875 993.046875 1149.960938 962.335938 1149.960938 912.902344 C 1149.960938 879.945312 1151.460938 855.980469 1155.207031 841.746094 C 1158.949219 827.515625 1164.941406 816.28125 1174.679688 808.792969 C 1184.417969 801.300781 1198.648438 796.808594 1217.371094 796.058594 Z M 281.875 796.058594 C 300.597656 796.808594 314.828125 801.300781 324.566406 808.792969 C 334.304688 816.28125 340.296875 826.769531 344.039062 841 C 347.785156 855.230469 349.28125 879.199219 349.28125 912.902344 C 349.28125 960.839844 353.027344 992.296875 359.769531 1006.527344 C 366.511719 1020.757812 378.492188 1032.742188 394.222656 1042.480469 C 409.953125 1052.214844 437.664062 1056.710938 477.363281 1056.710938 L 493.839844 1056.710938 L 493.839844 982.558594 C 467.625 982.558594 451.148438 979.5625 442.90625 973.570312 C 434.667969 967.578125 430.921875 955.59375 430.921875 937.621094 C 430.921875 878.449219 427.179688 837.253906 419.6875 814.035156 C 412.199219 790.816406 396.46875 772.839844 373.25 759.359375 C 398.71875 744.378906 414.445312 724.902344 421.1875 700.9375 C 427.929688 676.96875 430.921875 637.269531 430.921875 581.097656 C 430.921875 561.621094 434.667969 549.636719 442.160156 544.394531 C 449.648438 539.152344 466.875 536.15625 493.839844 536.15625 L 493.839844 462.003906 L 477.363281 462.003906 C 441.410156 462.003906 414.445312 466.5 396.46875 475.488281 C 378.492188 484.476562 365.761719 497.957031 359.769531 515.933594 C 353.027344 533.910156 350.03125 563.871094 350.03125 606.5625 C 350.03125 639.519531 348.535156 662.738281 344.789062 676.96875 C 341.042969 691.199219 335.050781 702.433594 325.316406 709.925781 C 315.578125 717.414062 301.347656 721.90625 282.621094 722.65625 L 282.621094 796.808594 Z M 281.875 796.058594 " fill-opacity="1" fill-rule="nonzero"/></g><g clip-path="url(#b11f4bec00)"><path fill="#c9971a" d="M 585.964844 1020.007812 L 644.386719 1020.007812 C 660.117188 1020.007812 673.597656 1032.742188 673.597656 1049.21875 L 673.597656 472.492188 C 673.597656 456.761719 660.867188 443.28125 644.386719 443.28125 L 585.964844 443.28125 C 570.238281 443.28125 556.753906 456.011719 556.753906 472.492188 L 556.753906 1049.21875 C 556.753906 1033.492188 569.488281 1020.007812 585.964844 1020.007812 Z M 585.964844 1020.007812 " fill-opacity="1" fill-rule="evenodd"/></g><path fill="#3d2b1f" d="M 723.78125 1012.519531 L 782.203125 1012.519531 C 797.933594 1012.519531 811.414062 1025.253906 811.414062 1041.730469 L 811.414062 605.8125 C 811.414062 590.085938 798.683594 576.601562 782.203125 576.601562 L 723.78125 576.601562 C 708.054688 576.601562 694.570312 589.335938 694.570312 605.8125 L 694.570312 1041.730469 C 694.570312 1057.460938 707.304688 1012.519531 723.78125 1012.519531 Z M 723.78125 1012.519531 " fill-opacity="1" fill-rule="evenodd"/><g clip-path="url(#7580738fad)"><path fill="#c9971a" d="M 856.355469 1020.007812 L 914.777344 1020.007812 C 930.503906 1020.007812 943.988281 1032.742188 943.988281 1049.21875 L 943.988281 472.492188 C 943.988281 456.761719 931.253906 443.28125 914.777344 443.28125 L 856.355469 443.28125 C 840.625 443.28125 827.144531 456.011719 827.144531 472.492188 L 827.144531 1049.21875 C 827.144531 1033.492188 839.875 1020.007812 856.355469 1020.007812 Z M 856.355469 1020.007812 " fill-opacity="1" fill-rule="evenodd"/></g></svg>