<svg xmlns="http://www.w3.org/2000/svg" xmlns:xlink="http://www.w3.org/1999/xlink" width="2000" zoomAndPan="magnify" viewBox="0 0 1500 1499.999933" height="2000" preserveAspectRatio="xMidYMid meet" version="1.0"><defs><clipPath id="9472482bce"><path d="M 46 310 L 1470 310 L 1470 1216.644531 L 46 1216.644531 Z M 46 310 " clip-rule="nonzero"/></clipPath><clipPath id="9bbf287156"><path d="M 464 283.644531 L 642 283.644531 L 642 1205 L 464 1205 Z M 464 283.644531 " clip-rule="nonzero"/></clipPath><clipPath id="3e07a1b25c"><path d="M 875 283.644531 L 1053 283.644531 L 1053 1205 L 875 1205 Z M 875 283.644531 " clip-rule="nonzero"/></clipPath></defs><g clip-path="url(#9472482bce)"><path fill="#b8541c" d="M 1469.601562 820.035156 L 1469.601562 707.289062 C 1441.128906 706.152344 1419.492188 700.457031 1404.6875 689.070312 C 1389.882812 677.679688 1380.773438 661.738281 1375.078125 640.097656 C 1369.382812 618.460938 1367.105469 582.019531 1367.105469 531.910156 C 1367.105469 478.382812 1364.828125 439.664062 1359.132812 415.75 C 1353.441406 391.832031 1344.328125 372.472656 1329.523438 356.527344 C 1314.71875 341.722656 1295.359375 330.335938 1271.441406 322.363281 C 1247.527344 315.53125 1214.5 310.976562 1172.363281 310.976562 L 1147.308594 310.976562 L 1147.308594 423.71875 C 1189.445312 423.71875 1215.640625 428.273438 1227.027344 436.246094 C 1238.417969 444.21875 1242.972656 463.578125 1242.972656 492.050781 C 1242.972656 579.742188 1248.667969 641.238281 1258.917969 676.542969 C 1269.164062 711.84375 1294.21875 740.316406 1331.800781 763.09375 C 1303.332031 779.035156 1280.554688 801.8125 1265.75 833.699219 C 1250.945312 864.449219 1242.972656 931.640625 1242.972656 1035.273438 C 1242.972656 1060.328125 1239.554688 1075.132812 1232.722656 1083.105469 C 1225.890625 1089.9375 1217.917969 1095.632812 1209.945312 1099.050781 C 1201.972656 1102.464844 1181.476562 1103.605469 1147.308594 1103.605469 L 1147.308594 1216.351562 L 1172.363281 1216.351562 C 1236.140625 1216.351562 1278.277344 1208.378906 1301.054688 1193.574219 C 1323.828125 1177.628906 1339.773438 1160.546875 1350.023438 1140.046875 C 1360.273438 1119.550781 1365.96875 1072.855469 1365.96875 997.695312 C 1365.96875 947.585938 1368.246094 911.140625 1373.9375 889.503906 C 1379.632812 867.867188 1388.742188 850.785156 1403.546875 839.394531 C 1418.351562 828.007812 1439.992188 821.175781 1468.460938 820.035156 Z M 46.054688 820.035156 C 74.527344 821.175781 96.164062 828.007812 110.96875 839.394531 C 125.773438 850.785156 134.882812 866.726562 140.578125 888.363281 C 146.273438 910.003906 148.550781 946.445312 148.550781 997.695312 C 148.550781 1070.578125 154.246094 1118.410156 164.496094 1140.046875 C 174.742188 1161.6875 192.964844 1179.90625 216.878906 1194.710938 C 240.796875 1209.515625 282.933594 1216.351562 343.292969 1216.351562 L 368.347656 1216.351562 L 368.347656 1103.605469 C 328.488281 1103.605469 303.433594 1099.050781 290.90625 1089.9375 C 278.378906 1080.828125 272.683594 1062.605469 272.683594 1035.273438 C 272.683594 945.308594 266.988281 882.671875 255.601562 847.367188 C 244.214844 812.0625 220.296875 784.730469 184.992188 764.230469 C 223.714844 741.457031 247.628906 711.84375 257.878906 675.402344 C 268.128906 638.960938 272.683594 578.601562 272.683594 493.1875 C 272.683594 463.578125 278.378906 445.359375 289.765625 437.386719 C 301.15625 429.414062 327.347656 424.859375 368.347656 424.859375 L 368.347656 312.113281 L 343.292969 312.113281 C 288.628906 312.113281 247.628906 318.945312 220.296875 332.613281 C 192.964844 346.277344 173.605469 366.777344 164.496094 394.109375 C 154.246094 421.441406 149.691406 466.996094 149.691406 531.910156 C 149.691406 582.019531 147.410156 617.320312 141.71875 638.960938 C 136.023438 660.597656 126.914062 677.679688 112.109375 689.070312 C 97.304688 700.457031 75.664062 707.289062 47.195312 708.429688 L 47.195312 821.175781 Z M 46.054688 820.035156 " fill-opacity="1" fill-rule="nonzero"/></g><g clip-path="url(#9bbf287156)"><path fill="#c9971a" d="M 508.421875 1160.546875 L 597.253906 1160.546875 C 621.167969 1160.546875 641.667969 1179.90625 641.667969 1204.960938 L 641.667969 328.058594 C 641.667969 304.140625 622.304688 283.644531 597.253906 283.644531 L 508.421875 283.644531 C 484.507812 283.644531 464.007812 303.003906 464.007812 328.058594 L 464.007812 1204.960938 C 464.007812 1181.046875 483.367188 1160.546875 508.421875 1160.546875 Z M 508.421875 1160.546875 " fill-opacity="1" fill-rule="evenodd"/></g><path fill="#3d2b1f" d="M 717.96875 1149.160156 L 806.796875 1149.160156 C 830.714844 1149.160156 851.210938 1168.519531 851.210938 1193.574219 L 851.210938 530.769531 C 851.210938 506.855469 831.851562 486.355469 806.796875 486.355469 L 717.96875 486.355469 C 694.054688 486.355469 673.554688 505.714844 673.554688 530.769531 L 673.554688 1193.574219 C 673.554688 1217.488281 692.914062 1149.160156 717.96875 1149.160156 Z M 717.96875 1149.160156 " fill-opacity="1" fill-rule="evenodd"/><g clip-path="url(#3e07a1b25c)"><path fill="#c9971a" d="M 919.542969 1160.546875 L 1008.371094 1160.546875 C 1032.289062 1160.546875 1052.785156 1179.90625 1052.785156 1204.960938 L 1052.785156 328.058594 C 1052.785156 304.140625 1033.425781 283.644531 1008.371094 283.644531 L 919.542969 283.644531 C 895.628906 283.644531 875.128906 303.003906 875.128906 328.058594 L 875.128906 1204.960938 C 875.128906 1181.046875 894.488281 1160.546875 919.542969 1160.546875 Z M 919.542969 1160.546875 " fill-opacity="1" fill-rule="evenodd"/></g></svg>